<svg xmlns="http://www.w3.org/2000/svg" viewBox="0 0 374.82 89.02"><defs><style>.cls-1{fill:#132945;}.cls-2{fill:#6f9e40;}.cls-3{fill:#8bc53f;}.cls-4{fill:#c2dc89;}</style></defs><title>Asset 7</title><g id="Layer_2" data-name="Layer 2"><g id="Layer_1-2" data-name="Layer 1"><path d="M160,24.88h.18c3.7-4.6,9.66-6.76,15.07-6.76,13.8,0,21.56,11.55,19.39,24.8s-13.35,24.54-27.06,24.54c-5.32,0-10.46-1.89-13.35-5.95L149.78,89H133.36l11-69.37h16.42Zm-3.33,18c-1,5.86,2.16,10.37,8.84,10.37a12.08,12.08,0,0,0,12.26-10.37c.91-5.69-2.25-10.47-8.93-10.47A12.14,12.14,0,0,0,156.64,42.84Z"/><path d="M248.73,65.93H232.32l.81-5.14H233c-3.61,4.6-9.65,6.67-15.07,6.67-13.71,0-21.56-11.46-19.39-24.71s13.35-24.63,27.06-24.63c5.32,0,10.56,2,13.35,6l.72-4.51H256ZM215.45,42.84c-1,5.86,2.16,10.37,8.84,10.37a12.08,12.08,0,0,0,12.26-10.37c.91-5.69-2.25-10.47-8.93-10.47A12.14,12.14,0,0,0,215.45,42.84Z"/><path d="M277.2,27.23h.18A19.14,19.14,0,0,1,293.62,19h3.16l-2.44,15.79a12.2,12.2,0,0,0-6.76-1.54c-9.11,0-12.27,6-13.53,14l-3,18.67H254.65L262,19.65h16.42Z"/><path d="M317.09,65.93H300.67l5.14-32.74h-5.32l2.17-13.54H308l2.26-13.89h16.41L324.4,19.65h9.29l-2.17,13.54h-9.29Z"/><path d="M367.61,31.56a18.05,18.05,0,0,0-8.48-2.26c-1.9,0-5.23.81-5.59,3.16-.55,3.16,4.51,3.61,6.76,4.06,7.4,1.53,12.63,5.14,11.28,13.71-2,12.18-13.89,17.23-24.63,17.23a31.48,31.48,0,0,1-17.77-5.32l7.76-11.46c3,2.35,8.21,4.69,12.26,4.69,2.08,0,5.24-1,5.69-3.51.54-3.61-4.6-3.79-9.47-5.15s-9.66-3.87-8.39-12.17c1.8-11.37,12.9-16.42,23-16.42a33.73,33.73,0,0,1,14.79,3Z"/><path class="cls-1" d="M26.12,52c-7.43-2.26-10.34-10.58-9-18.73,1.46-9.37,8.55-19.43,19.07-19.43,6.43,0,10.43,3.89,11.73,9.75l16.14-6.36C60.54,5.72,51.66,0,39,0,19.23,0,3.66,13.12.48,33.09-.7,40.67.33,47.29,3.19,52.55A29,29,0,0,0,26.12,52Z"/><path class="cls-1" d="M31.78,42.07h13a13.08,13.08,0,0,1-4.42,7.21A29,29,0,0,1,4.61,54.85c4.74,6.73,12.92,10.67,23.5,10.67,7.08,0,13.85-1.51,19.78-5.35l-.11.9h.06l-.73,4.34,12.72,0,5-31.3h-.06L65.2,31a16.43,16.43,0,0,0,.31-1.88H33.81Z"/><path class="cls-1" d="M108.33,0c-17.68,0-36,13-38.95,31.62C66.2,51.5,78.26,65.52,98,65.52s36.18-14,39.36-33.9C140.28,13,126,0,108.33,0Zm12.39,31.7C119,42.3,110,50,100.43,50S84.29,42.3,86,31.7c1.3-8.47,10.35-16.22,19.89-16.22S122,23.23,120.72,31.7Z"/><path class="cls-2" d="M118.5,32.55C117,41.1,108.83,48,100.28,48a13,13,0,0,1-9.36-3.67c-.18-.18-.36-.37-.53-.56a13.24,13.24,0,0,1-2.86-11.25C89,24,97.19,17.06,105.74,17.06a12.53,12.53,0,0,1,12.05,7.74c.07.18.14.37.2.56A14.18,14.18,0,0,1,118.5,32.55Z"/><path class="cls-3" d="M118.5,32.55C117,41.1,108.83,48,100.28,48a13,13,0,0,1-9.36-3.67,14.2,14.2,0,0,1-.5-7.19c1.51-8.55,9.66-15.49,18.21-15.49A13,13,0,0,1,118,25.36,14.18,14.18,0,0,1,118.5,32.55Z"/><ellipse class="cls-4" cx="109.49" cy="36.06" rx="8.61" ry="4.59" transform="matrix(0.55, -0.83, 0.83, 0.55, 19.12, 107.62)"/></g></g></svg>